<svg width="60" height="60" viewBox="0 0 60 60" fill="none" xmlns="http://www.w3.org/2000/svg">
<g clip-path="url(#clip0_13314_6411)">
<mask id="mask0_13314_6411" style="mask-type:luminance" maskUnits="userSpaceOnUse" x="0" y="0" width="60" height="60">
<path d="M60 0H0V60H60V0Z" fill="white"/>
</mask>
<g mask="url(#mask0_13314_6411)">
<path d="M60 0H0V60H60V0Z" fill="#EBF2FE"/>
<path d="M33.328 34.4141C33.328 34.9455 32.9115 35.374 32.395 35.374H27.6045C27.088 35.374 26.6714 34.9455 26.6714 34.4141V33.6255C22.3809 33.5569 18.3986 33.2483 15.0078 31.9712V39.8569C15.0078 42.694 17.2489 44.9998 20.0065 44.9998H40.0013C42.7589 44.9998 45 42.694 45 39.8569V31.9712C41.6092 33.2483 37.6269 33.5569 33.3364 33.6255V34.4141H33.328Z" fill="#FBB040"/>
<path d="M39.9935 21H37.9107V24H35.4114V21H24.5808V24H22.0815V21H19.9987C17.2411 21 15 23.3057 15 26.1429V31.9714C18.3908 33.2486 22.3731 33.5571 26.6636 33.6257V32.9057C26.6636 32.3743 27.0802 31.9457 27.5967 31.9457H32.3871C32.9037 31.9457 33.3202 32.3743 33.3202 32.9057V33.6257C37.6108 33.5571 41.5931 33.2486 44.9839 31.9714V26.1429C44.9839 23.3057 42.7428 21 39.9852 21H39.9935Z" fill="#3A7BF6"/>
<path d="M24.5815 24V19.7143C24.5815 18.5314 25.5146 17.5714 26.6643 17.5714H33.3292C34.4789 17.5714 35.412 18.5314 35.412 19.7143V24H37.9114V19.7143C37.9114 17.1171 35.8536 15 33.3292 15H26.6643C24.14 15 22.0822 17.1171 22.0822 19.7143V24H24.5815Z" fill="#75A3F9"/>
<path d="M27.1192 36.1717H32.8749C33.4955 36.1717 33.996 35.5272 33.996 34.7281V32.4724C33.996 31.6733 33.4955 31.0288 32.8749 31.0288H27.1192C26.4985 31.0288 25.998 31.6733 25.998 32.4724V34.7281C25.998 35.5272 26.4985 36.1717 27.1192 36.1717Z" fill="#1D3E7B"/>
</g>
</g>
<defs>
<clipPath id="clip0_13314_6411">
<rect width="60" height="60" rx="12" fill="white"/>
</clipPath>
</defs>
</svg>
