<svg width="60" height="60" viewBox="0 0 60 60" fill="none" xmlns="http://www.w3.org/2000/svg">
<g clip-path="url(#clip0_13314_11671)">
<mask id="mask0_13314_11671" style="mask-type:luminance" maskUnits="userSpaceOnUse" x="0" y="0" width="60" height="60">
<path d="M60 0H0V60H60V0Z" fill="white"/>
</mask>
<g mask="url(#mask0_13314_11671)">
<path d="M60 0H0V60H60V0Z" fill="#EBF2FE"/>
<path d="M29.8098 28.5898C29.9211 28.5813 30.0418 28.5813 30.1531 28.5898H30.2552C34.3385 28.479 37.5495 25.3423 37.4289 21.5918C37.3082 17.8414 33.8931 14.8922 29.8098 15.003C25.7264 15.1138 22.5155 18.2505 22.6361 22.001C22.7567 25.598 25.8935 28.479 29.8098 28.5898Z" fill="#3A7BF6"/>
<path d="M39.3777 32.3401C33.559 29.3313 26.4503 29.3313 20.6223 32.3401C17.4948 33.6613 16.1306 37.0623 17.5783 39.9347C18.2001 41.1707 19.2766 42.1594 20.6223 42.7305C26.441 45.7564 33.559 45.7564 39.3777 42.7305C42.5052 41.4093 43.8694 38.0084 42.4217 35.1359C41.7999 33.9 40.7234 32.9112 39.3777 32.3401ZM36.6122 37.5396H30.9327C30.2645 37.5225 29.7262 37.0111 29.7448 36.3889C29.7634 35.7922 30.283 35.3149 30.9327 35.2979H36.6215C37.2897 35.3149 37.8279 35.8263 37.8094 36.4486C37.7908 37.0452 37.2711 37.5225 36.6215 37.5396H36.6122Z" fill="#FBB040"/>
<path d="M36.6135 35.2979H30.9247C30.2565 35.3149 29.7182 35.8263 29.7368 36.4486C29.7554 37.0452 30.2751 37.5225 30.9247 37.5396H36.6042C37.2724 37.5225 37.8106 37.0111 37.7921 36.3889C37.7735 35.7922 37.2538 35.3149 36.6042 35.2979H36.6135Z" fill="#1D3E7B"/>
</g>
</g>
<defs>
<clipPath id="clip0_13314_11671">
<rect width="60" height="60" rx="12" fill="white"/>
</clipPath>
</defs>
</svg>
