<svg width="60" height="60" viewBox="0 0 60 60" fill="none" xmlns="http://www.w3.org/2000/svg">
<g clip-path="url(#clip0_13327_13869)">
<mask id="mask0_13327_13869" style="mask-type:luminance" maskUnits="userSpaceOnUse" x="0" y="0" width="60" height="60">
<path d="M60 0H0V60H60V0Z" fill="white"/>
</mask>
<g mask="url(#mask0_13327_13869)">
<path d="M60 0H0V60H60V0Z" fill="#EBF2FE"/>
<path d="M43.5496 29.4002V37.9038C43.5162 41.8515 40.2922 45.0331 36.3434 44.9998H23.7472C19.7984 45.0331 16.566 41.8515 16.541 37.9038V29.5085C18.807 31.8738 22.5559 31.9571 24.9218 29.7001C25.1468 29.4835 25.3467 29.2586 25.5383 29.0088C27.3128 31.5074 30.7784 32.0904 33.2776 30.3081C33.7608 29.9666 34.1857 29.5418 34.5356 29.0671C35.6519 30.483 37.3431 31.3158 39.1509 31.3408C40.8337 31.3658 42.4416 30.6579 43.5579 29.4086L43.5496 29.4002Z" fill="#FBB040"/>
<path d="M44.9649 24.9777L44.5567 21.0382C43.9569 16.7573 41.9825 15.0083 37.7504 15.0083H32.2188L33.2851 25.6523C33.2934 25.8022 33.3101 25.9521 33.3184 26.2186C33.4017 26.9266 33.6267 27.6179 33.9766 28.2425C35.0179 30.1248 36.984 31.2991 39.1333 31.3241C40.9911 31.3574 42.7489 30.4996 43.8652 29.0171C44.7317 27.8594 45.1232 26.4102 44.9649 24.9693V24.9777Z" fill="#3A7BF6"/>
<path d="M22.2386 15.0083C18.0066 15.0083 16.0322 16.7573 15.424 21.0716L15.0325 24.9777C14.8742 26.4602 15.299 27.9427 16.2154 29.117C17.3401 30.5329 19.0562 31.3491 20.864 31.3241C23.0051 31.2991 24.9628 30.1331 26.0042 28.2675C26.3874 27.6096 26.629 26.8766 26.6956 26.1187L27.8203 15H22.2303L22.2386 15.0083Z" fill="#3A7BF6"/>
<path d="M29.1024 36.8793C27.2863 37.0626 25.9034 38.5784 25.8867 40.4024V44.9831H34.1759V40.9021C34.1759 37.9454 32.4098 36.5295 29.1024 36.8793Z" fill="#1D3E7B"/>
<path d="M34.3444 15.0083H25.697L24.6307 25.4524C24.4058 28.4591 26.6634 31.0743 29.6708 31.2991C31.9368 31.4657 34.0695 30.2164 35.0276 28.1509C35.3025 27.5013 35.4441 26.81 35.4608 26.1104V25.8356L34.3361 15L34.3444 15.0083Z" fill="#75A3F9"/>
</g>
</g>
<defs>
<clipPath id="clip0_13327_13869">
<rect width="60" height="60" rx="12" fill="white"/>
</clipPath>
</defs>
</svg>
