<svg width="24" height="24" viewBox="0 0 24 24" fill="none" xmlns="http://www.w3.org/2000/svg">
<mask id="mask0_13301_4003" style="mask-type:luminance" maskUnits="userSpaceOnUse" x="0" y="0" width="24" height="24">
<path d="M24 0H0V24H24V0Z" fill="white"/>
</mask>
<g mask="url(#mask0_13301_4003)">
<path d="M9.80003 11.9902L6.27003 8.50023C6.10003 8.34023 6.02003 8.13023 6.01003 7.88023C6.00003 7.63023 6.09003 7.42023 6.27003 7.24023C6.44003 7.08023 6.65003 6.99023 6.91003 6.99023C7.17003 6.99023 7.38003 7.07023 7.55003 7.24023L11.74 11.3602C11.83 11.4502 11.9 11.5502 11.93 11.6502C11.96 11.7502 11.99 11.8702 11.99 11.9902C11.99 12.1102 11.97 12.2202 11.93 12.3302C11.89 12.4402 11.83 12.5302 11.74 12.6202L7.55003 16.7402C7.38003 16.9002 7.17003 16.9902 6.92003 17.0002C6.67003 17.0102 6.45003 16.9202 6.27003 16.7402C6.10003 16.5802 6.02003 16.3702 6.02003 16.1102C6.02003 15.8502 6.10003 15.6502 6.27003 15.4802L9.80003 11.9902ZM15.82 11.9902L12.29 8.50023C12.12 8.34023 12.04 8.13023 12.03 7.88023C12.02 7.63023 12.11 7.42023 12.29 7.24023C12.46 7.08023 12.67 6.99023 12.93 6.99023C13.19 6.99023 13.4 7.07023 13.57 7.24023L17.76 11.3602C17.85 11.4502 17.92 11.5502 17.95 11.6502C17.98 11.7502 18.01 11.8702 18.01 11.9902C18.01 12.1102 17.99 12.2202 17.95 12.3302C17.91 12.4402 17.85 12.5302 17.76 12.6202L13.57 16.7402C13.4 16.9002 13.19 16.9902 12.94 17.0002C12.69 17.0102 12.47 16.9202 12.29 16.7402C12.12 16.5802 12.04 16.3702 12.04 16.1102C12.04 15.8502 12.12 15.6502 12.29 15.4802L15.82 11.9902Z" fill="#B8B9BB"/>
</g>
</svg>
