<svg width="24" height="24" viewBox="0 0 24 24" fill="none" xmlns="http://www.w3.org/2000/svg">
<mask id="mask0_13301_5664" style="mask-type:luminance" maskUnits="userSpaceOnUse" x="0" y="0" width="24" height="24">
<path d="M0 24L24 24L24 0L0 0L0 24Z" fill="white"/>
</mask>
<g mask="url(#mask0_13301_5664)">
<path d="M14.2 11.9902L17.73 8.50023C17.9 8.34023 17.98 8.13023 17.99 7.88023C18 7.63023 17.91 7.42023 17.73 7.24023C17.56 7.08023 17.35 6.99023 17.09 6.99023C16.83 6.99023 16.62 7.07023 16.45 7.24023L12.26 11.3602C12.17 11.4502 12.1 11.5502 12.07 11.6502C12.04 11.7502 12.01 11.8702 12.01 11.9902C12.01 12.1102 12.03 12.2202 12.07 12.3302C12.11 12.4402 12.17 12.5302 12.26 12.6202L16.45 16.7402C16.62 16.9002 16.83 16.9902 17.08 17.0002C17.33 17.0102 17.55 16.9202 17.73 16.7402C17.9 16.5802 17.98 16.3702 17.98 16.1102C17.98 15.8502 17.9 15.6502 17.73 15.4802L14.2 11.9902ZM8.17999 11.9902L11.71 8.50023C11.88 8.34023 11.96 8.13023 11.97 7.88023C11.98 7.63023 11.89 7.42023 11.71 7.24023C11.54 7.08023 11.33 6.99023 11.07 6.99023C10.81 6.99023 10.6 7.07023 10.43 7.24023L6.23999 11.3602C6.14999 11.4502 6.07999 11.5502 6.04999 11.6502C6.01999 11.7502 5.98999 11.8702 5.98999 11.9902C5.98999 12.1102 6.00999 12.2202 6.04999 12.3302C6.08999 12.4402 6.14999 12.5302 6.23999 12.6202L10.43 16.7402C10.6 16.9002 10.81 16.9902 11.06 17.0002C11.31 17.0102 11.53 16.9202 11.71 16.7402C11.88 16.5802 11.96 16.3702 11.96 16.1102C11.96 15.8502 11.88 15.6502 11.71 15.4802L8.17999 11.9902Z" fill="#B8B9BB"/>
</g>
</svg>
