<svg width="24" height="24" viewBox="0 0 24 24" fill="none" xmlns="http://www.w3.org/2000/svg">
<path d="M22 12C22 17.5228 17.5228 22 12 22C6.47715 22 2 17.5228 2 12C2 6.47715 6.47715 2 12 2C17.5228 2 22 6.47715 22 12Z" fill="#21B531"/>
<path fill-rule="evenodd" clip-rule="evenodd" d="M16.6483 8.40611C17.1283 8.93527 17.1154 9.77938 16.6193 10.2915L11.4526 15.6248C10.9669 16.1262 10.1954 16.1249 9.71116 15.6218L7.37782 13.1976C6.88329 12.6838 6.87287 11.8396 7.35456 11.3121C7.83626 10.7846 8.62764 10.7735 9.12218 11.2873L10.5862 12.8083L14.8807 8.3752C15.3768 7.8631 16.1682 7.87694 16.6483 8.40611Z" fill="white"/>
</svg>
