<svg width="80" height="80" viewBox="0 0 80 80" fill="none" xmlns="http://www.w3.org/2000/svg">
<mask id="mask0_10900_33264" style="mask-type:luminance" maskUnits="userSpaceOnUse" x="0" y="0" width="80" height="80">
<path d="M80 0H0V80H80V0Z" fill="white"/>
</mask>
<g mask="url(#mask0_10900_33264)">
<path d="M39.9993 6.6664C21.5993 6.6664 6.66602 21.5997 6.66602 39.9997C6.66602 58.3997 21.5993 73.3331 39.9993 73.3331C58.3993 73.3331 73.3327 58.3997 73.3327 39.9997C73.3327 21.5997 58.3993 6.6664 39.9993 6.6664ZM39.9993 59.0331C37.366 59.0331 35.2327 56.8997 35.2327 54.2664C35.2327 51.6331 37.366 49.4997 39.9993 49.4997C42.6327 49.4997 44.766 51.6331 44.766 54.2664C44.766 56.8997 42.6327 59.0331 39.9993 59.0331ZM44.766 39.9997C44.766 42.6331 42.6327 44.7664 39.9993 44.7664C37.366 44.7664 35.2327 42.6331 35.2327 39.9997V25.6997C35.2327 23.0664 37.366 20.9331 39.9993 20.9331C42.6327 20.9331 44.766 23.0664 44.766 25.6997V39.9997Z" fill="#FFA700"/>
</g>
</svg>
