<svg width="24" height="24" viewBox="0 0 24 24" fill="none" xmlns="http://www.w3.org/2000/svg">
<g clip-path="url(#clip0_10327_23336)">
<path d="M18.85 3.41986L5.52 2.00986C4.72 1.92986 4 2.39986 4 3.01986V20.9899C4 21.6099 4.72 22.0799 5.52 21.9999L18.85 20.5899C19.51 20.5199 20 20.0899 20 19.5799V4.42986C20 3.91986 19.51 3.48986 18.85 3.41986ZM10.12 16.0299C9.94 16.0299 9.76 15.9499 9.62 15.7999C9.34 15.4899 9.34 14.9899 9.62 14.6799L11.94 12.0799L9.62 9.47986C9.34 9.16986 9.34 8.66986 9.62 8.35986C9.9 8.04986 10.34 8.04986 10.62 8.35986L13.44 11.5199C13.72 11.8299 13.72 12.3299 13.44 12.6399L10.62 15.7999C10.48 15.9499 10.3 16.0299 10.12 16.0299ZM17.21 12.6399L13.45 16.8499C13.31 16.9999 13.13 17.0799 12.95 17.0799C12.77 17.0799 12.59 16.9999 12.45 16.8499C12.17 16.5399 12.17 16.0399 12.45 15.7299L15.72 12.0799L12.45 8.42986C12.17 8.11986 12.17 7.61986 12.45 7.30986C12.73 6.99986 13.17 6.99986 13.45 7.30986L17.21 11.5199C17.49 11.8299 17.49 12.3299 17.21 12.6399Z" fill="#EB5757"/>
</g>
<defs>
<clipPath id="clip0_10327_23336">
<rect width="24" height="24" fill="white"/>
</clipPath>
</defs>
</svg>
