<svg width="80" height="80" viewBox="0 0 80 80" fill="none" xmlns="http://www.w3.org/2000/svg">
<g clip-path="url(#clip0_10810_50910)">
<path d="M62.8333 11.4L18.4 6.70004C15.7333 6.43337 13.3333 8.00004 13.3333 10.0667V69.9667C13.3333 72.0334 15.7333 73.6 18.4 73.3334L62.8333 68.6334C65.0333 68.4 66.6667 66.9667 66.6667 65.2667V14.7667C66.6667 13.0667 65.0333 11.6334 62.8333 11.4ZM33.7333 53.4334C33.1333 53.4334 32.5333 53.1667 32.0667 52.6667C31.1333 51.6334 31.1333 49.9667 32.0667 48.9334L39.8 40.2667L32.0667 31.6C31.1333 30.5667 31.1333 28.9 32.0667 27.8667C33 26.8334 34.4667 26.8334 35.4 27.8667L44.8 38.4C45.7333 39.4334 45.7333 41.1 44.8 42.1334L35.4 52.6667C34.9333 53.1667 34.3333 53.4334 33.7333 53.4334ZM57.3667 42.1334L44.8333 56.1667C44.3667 56.6667 43.7667 56.9334 43.1667 56.9334C42.5667 56.9334 41.9667 56.6667 41.5 56.1667C40.5667 55.1334 40.5667 53.4667 41.5 52.4334L52.4 40.2667L41.5 28.1C40.5667 27.0667 40.5667 25.4 41.5 24.3667C42.4333 23.3334 43.9 23.3334 44.8333 24.3667L57.3667 38.4C58.3 39.4334 58.3 41.1 57.3667 42.1334Z" fill="#EB5757"/>
</g>
<defs>
<clipPath id="clip0_10810_50910">
<rect width="80" height="80" fill="white"/>
</clipPath>
</defs>
</svg>
