<svg width="24" height="25" viewBox="0 0 24 25" fill="none" xmlns="http://www.w3.org/2000/svg">
<path fill-rule="evenodd" clip-rule="evenodd" d="M3.6 6.22655C3.6 5.90829 3.72643 5.60307 3.95147 5.37802C4.17651 5.15298 4.48174 5.02655 4.8 5.02655H19.2C19.5183 5.02655 19.8235 5.15298 20.0485 5.37802C20.2736 5.60307 20.4 5.90829 20.4 6.22655C20.4 6.54481 20.2736 6.85003 20.0485 7.07508C19.8235 7.30012 19.5183 7.42655 19.2 7.42655H4.8C4.48174 7.42655 4.17651 7.30012 3.95147 7.07508C3.72643 6.85003 3.6 6.54481 3.6 6.22655ZM3.6 12.2265C3.6 11.9083 3.72643 11.6031 3.95147 11.378C4.17651 11.153 4.48174 11.0265 4.8 11.0265H12C12.3183 11.0265 12.6235 11.153 12.8485 11.378C13.0736 11.6031 13.2 11.9083 13.2 12.2265C13.2 12.5448 13.0736 12.85 12.8485 13.0751C12.6235 13.3001 12.3183 13.4265 12 13.4265H4.8C4.48174 13.4265 4.17651 13.3001 3.95147 13.0751C3.72643 12.85 3.6 12.5448 3.6 12.2265ZM3.6 18.2265C3.6 17.9083 3.72643 17.6031 3.95147 17.378C4.17651 17.153 4.48174 17.0265 4.8 17.0265H19.2C19.5183 17.0265 19.8235 17.153 20.0485 17.378C20.2736 17.6031 20.4 17.9083 20.4 18.2265C20.4 18.5448 20.2736 18.85 20.0485 19.0751C19.8235 19.3001 19.5183 19.4265 19.2 19.4265H4.8C4.48174 19.4265 4.17651 19.3001 3.95147 19.0751C3.72643 18.85 3.6 18.5448 3.6 18.2265Z" fill="#3A7BF6"/>
</svg>
