<svg width="24" height="24" viewBox="0 0 24 24" fill="none" xmlns="http://www.w3.org/2000/svg">
<mask id="mask0_13362_584" style="mask-type:luminance" maskUnits="userSpaceOnUse" x="0" y="0" width="24" height="24">
<path d="M24 0H0V24H24V0Z" fill="white"/>
</mask>
<g mask="url(#mask0_13362_584)">
<path fill-rule="evenodd" clip-rule="evenodd" d="M9.70612 18.938C10.1774 19.5271 10.8696 19.898 11.6207 19.9853H11.6134C11.7238 19.9998 11.8417 19.9998 11.9521 19.9998C12.5928 20.0071 13.2114 19.7962 13.7195 19.4107C13.9036 19.2726 14.0729 19.1126 14.2202 18.938C14.4191 18.698 14.3822 18.3489 14.1392 18.1526C12.6959 17.9562 11.2305 17.9562 9.78712 18.1526C9.54411 18.3489 9.50729 18.698 9.70612 18.938ZM5.7885 15.4981C6.45125 16.1744 7.34229 16.5962 8.29224 16.6835L8.30697 16.6908C9.53675 16.8144 10.7665 16.8799 12.0037 16.8799C13.2335 16.8799 14.4632 16.8144 15.6857 16.6835C16.6503 16.5962 17.5561 16.1671 18.2262 15.469C18.7417 14.8726 19.0142 14.1162 18.9994 13.3308V13.149C18.97 12.5599 18.7785 11.9926 18.4471 11.5126C18.4398 11.5017 18.4306 11.4908 18.4214 11.4799C18.4122 11.469 18.403 11.4581 18.3956 11.4472C18.02 11.0399 17.7623 10.5454 17.6371 10.0145C17.6224 9.80357 17.6224 9.58539 17.6224 9.37448C17.6297 9.1054 17.6297 8.82176 17.6003 8.5454C17.3278 5.73816 14.4411 4 11.9742 4C9.50729 4 6.67954 5.73089 6.41443 8.5454C6.37025 9.04722 6.37025 9.54176 6.37025 10.029C6.24506 10.5527 5.98732 11.0399 5.61176 11.4326C5.58967 11.4545 5.56758 11.4763 5.55285 11.5054C5.21411 11.9999 5.03001 12.5744 5.00055 13.1708V13.3308C4.98583 14.1235 5.26566 14.8944 5.7885 15.4981ZM14.3528 8.95276C14.419 9.19275 14.64 9.35275 14.883 9.35275V9.34548C14.9345 9.34548 14.9861 9.33821 15.0376 9.32366C15.3322 9.23639 15.5015 8.93821 15.4132 8.64731C15.0229 7.5055 14.0508 6.64006 12.8579 6.37824C12.5633 6.30551 12.2614 6.48006 12.1878 6.77096C12.1141 7.06187 12.2909 7.36005 12.5854 7.43277C13.4028 7.60732 14.0656 8.18186 14.3528 8.95276Z" fill="#595C60"/>
</g>
</svg>
