<svg width="24" height="24" viewBox="0 0 24 24" fill="none" xmlns="http://www.w3.org/2000/svg">
<mask id="mask0_13362_9372" style="mask-type:luminance" maskUnits="userSpaceOnUse" x="0" y="0" width="24" height="24">
<path d="M24 0H0V24H24V0Z" fill="white"/>
</mask>
<g mask="url(#mask0_13362_9372)">
<path d="M12.2223 11.1111C14.186 11.1111 15.7779 9.51923 15.7779 7.55556C15.7779 5.59188 14.186 4 12.2223 4C10.2586 4 8.66675 5.59188 8.66675 7.55556C8.66675 9.51923 10.2586 11.1111 12.2223 11.1111Z" fill="#595C60"/>
<path d="M14.8889 12.8887H9.55556C7.59111 12.8887 6 14.4798 6 16.4442C6 18.4087 7.59111 19.9998 9.55556 19.9998H14.8889C16.8533 19.9998 18.4444 18.4087 18.4444 16.4442C18.4444 14.4798 16.8533 12.8887 14.8889 12.8887Z" fill="#595C60"/>
</g>
</svg>
