<svg width="80" height="80" viewBox="0 0 80 80" fill="none" xmlns="http://www.w3.org/2000/svg">
    <mask id="mask0_13345_10415" style="mask-type:luminance" maskUnits="userSpaceOnUse" x="0" y="0" width="80" height="80">
        <path d="M80 0H0V80H80V0Z" fill="white"/>
    </mask>
    <g mask="url(#mask0_13345_10415)">
        <path d="M39.9998 6.66663C21.5998 6.66663 6.6665 21.6 6.6665 40C6.6665 58.4 21.5998 73.3333 39.9998 73.3333C58.3998 73.3333 73.3332 58.4 73.3332 40C73.3332 21.6 58.3998 6.66663 39.9998 6.66663ZM54.6332 33.9333L36.9665 50.6C36.3998 51.1333 35.5998 51.4666 34.8332 51.4666C34.7998 51.4666 34.7332 51.4666 34.6998 51.4666C33.8665 51.4666 33.0665 51.0666 32.4998 50.4333L25.1665 42.2666C23.9998 40.9666 24.1332 39 25.3998 37.8666C26.6665 36.7333 28.6665 36.8333 29.7998 38.1L34.9998 43.8666L50.3332 29.4C51.5998 28.2 53.5665 28.2666 54.7665 29.5333C55.9665 30.8 55.8998 32.7666 54.6332 33.9666V33.9333Z"
              fill="#21B531"/>
    </g>
</svg>
