<svg width="12" height="12" viewBox="0 0 12 12" fill="none" xmlns="http://www.w3.org/2000/svg">
<path d="M8.61722 9.70525L10.6874 11.7754C10.9874 12.0754 11.475 12.0754 11.775 11.7754C12.075 11.4754 12.075 10.9879 11.775 10.6878L9.69731 8.61016C10.4699 7.59007 10.8674 6.31496 10.7549 4.91985C10.5449 2.42964 8.56471 0.35196 6.0895 0.0444342C2.4667 -0.413104 -0.563557 2.72966 0.0889979 6.38997C0.47153 8.53515 2.18917 10.2753 4.33435 10.6803C5.94699 10.9879 7.45462 10.5753 8.61722 9.70525ZM5.39194 9.24021C3.26927 9.24021 1.54412 7.50756 1.54412 5.39238C1.54412 3.27721 3.26927 1.54456 5.39194 1.54456C7.51462 1.54456 9.23977 3.26971 9.23977 5.39238C9.23977 6.17245 9.00725 6.90001 8.60221 7.50756C8.31719 7.9351 7.94966 8.31763 7.50712 8.59515C6.90707 9.00769 6.17201 9.24021 5.39194 9.24021Z" fill="white"/>
</svg>
