<svg width="36" height="36" viewBox="0 0 36 36" fill="none" xmlns="http://www.w3.org/2000/svg">
<mask id="mask0_10327_22139" style="mask-type:luminance" maskUnits="userSpaceOnUse" x="0" y="0" width="36" height="36">
<path d="M36 0H0V36H36V0Z" fill="white"/>
</mask>
<g mask="url(#mask0_10327_22139)">
<path d="M32.9999 16.5C32.1749 16.5 31.4999 17.175 31.4999 18C31.4999 25.44 25.4399 31.5 17.9999 31.5C10.5599 31.5 4.49994 25.44 4.49994 18C4.49994 10.56 10.5599 4.5 17.9999 4.5C18.8249 4.5 19.4999 3.825 19.4999 3C19.4999 2.175 18.8249 1.5 17.9999 1.5C8.89494 1.5 1.49994 8.895 1.49994 18C1.49994 27.105 8.89494 34.5 17.9999 34.5C27.1049 34.5 34.4999 27.105 34.4999 18C34.4999 17.175 33.8249 16.5 32.9999 16.5Z" fill="#3A7BF6"/>
<path d="M18.495 12.2998C18.495 11.4748 17.82 10.7998 16.995 10.7998C16.17 10.7998 15.495 11.4748 15.495 12.2998V18.9448C15.495 19.7698 16.17 20.4448 16.995 20.4448H23.76C24.585 20.4448 25.26 19.7698 25.26 18.9448C25.26 18.1198 24.585 17.4448 23.76 17.4448H20.67L28.065 10.0498C28.65 9.46484 28.65 8.51984 28.065 7.93484C27.48 7.34984 26.535 7.34984 25.95 7.93484L18.51 15.3898V12.2998H18.495Z" fill="#3A7BF6"/>
</g>
</svg>
