<svg width="36" height="36" viewBox="0 0 36 36" fill="none" xmlns="http://www.w3.org/2000/svg">
<mask id="mask0_10327_22124" style="mask-type:luminance" maskUnits="userSpaceOnUse" x="0" y="0" width="36" height="36">
<path d="M36 0H0V36H36V0Z" fill="white"/>
</mask>
<g mask="url(#mask0_10327_22124)">
<path d="M33.9855 5.26316C33.9855 5.26316 34 5.15088 34 5.09474C34 5.06667 34 5.0386 34 5.01053C34 4.96842 33.9709 4.92632 33.9709 4.88421C33.9709 4.88421 33.9709 4.88421 33.9709 4.87018C33.9709 4.81404 33.9564 4.77193 33.9273 4.71579C33.9273 4.68772 33.8982 4.65965 33.8836 4.63158C33.8836 4.63158 33.8836 4.60351 33.8836 4.58947C33.8691 4.5614 33.84 4.53333 33.8109 4.50526C33.7963 4.47719 33.7818 4.44912 33.7672 4.43509C33.7672 4.42105 33.7527 4.39298 33.7381 4.37895C33.7236 4.35088 33.6945 4.33684 33.6654 4.32281C33.6217 4.2807 33.5781 4.2386 33.5199 4.21053C33.4762 4.18246 33.4617 4.15439 33.418 4.12632C33.418 4.12632 33.418 4.12632 33.4035 4.12632C33.3744 4.12632 33.3598 4.11228 33.3307 4.09825C33.2725 4.07018 33.2143 4.05614 33.1561 4.04211C33.1125 4.04211 33.0688 4.01404 33.0106 4C32.9815 4 32.9524 4 32.9233 4C32.8651 4 32.8069 4 32.7487 4C32.7051 4 32.6469 4 32.6032 4C32.5596 4 32.5305 4.01404 32.4868 4.02807C32.4577 4.02807 32.4432 4.02807 32.4141 4.02807L2.79118 14.3158C2.3547 14.4702 2.04916 14.8491 2.00551 15.2842C1.96186 15.7193 2.1801 16.1544 2.57294 16.393L9.46943 20.4211L11.0408 31.0175C11.0408 31.0175 11.0699 31.0877 11.0699 31.1158C11.0844 31.186 11.1135 31.2561 11.1426 31.3123C11.1717 31.3684 11.2008 31.4105 11.2299 31.4667C11.2736 31.5228 11.3027 31.5789 11.3463 31.6211C11.39 31.6632 11.4336 31.7053 11.4918 31.7474C11.5209 31.7754 11.5355 31.8035 11.5791 31.8175C11.6082 31.8316 11.6373 31.8456 11.6664 31.8596C11.7101 31.8877 11.7537 31.9018 11.7974 31.9158C11.8701 31.9439 11.9574 31.9579 12.0302 31.9719C12.0593 31.9719 12.0884 31.986 12.1175 32C12.1466 32 12.1902 32 12.2193 32C12.3648 32 12.4957 31.9719 12.6267 31.9298C12.6703 31.9298 12.6994 31.8877 12.7285 31.8737C12.8158 31.8316 12.9031 31.7895 12.9759 31.7193C12.9904 31.7193 13.005 31.7053 13.0195 31.6912L19.3631 26.1895L25.4158 29.7263C25.6049 29.8386 25.8231 29.8947 26.0414 29.8947C26.1869 29.8947 26.3469 29.8667 26.4924 29.8105C26.8416 29.6702 27.1181 29.3895 27.2054 29.0386L33.9709 5.40351C33.9709 5.3614 33.9709 5.3193 33.9709 5.26316H33.9855ZM12.6994 25.7684L11.8847 20.2807L23.2042 12.8281L14.2562 21.5719C14.198 21.6281 14.1835 21.6982 14.1398 21.7544C14.0816 21.8386 14.0089 21.9228 13.9798 22.007L12.6994 25.7544V25.7684ZM24.2809 9.30526L16.4387 14.4702L10.5461 18.3439L5.97754 15.6772L24.2809 9.30526ZM14.8091 27.0877L15.3329 25.5579L15.813 24.1404L17.2535 24.9825L14.8091 27.1018V27.0877ZM25.343 26.9895L19.9015 23.8035L17.6317 22.4842L17.0789 22.1614L20.7744 18.5544L30.4208 9.10877L25.343 27.0035V26.9895Z" fill="#A059FA"/>
</g>
</svg>
