<svg width="50" height="50" viewBox="0 0 50 50" fill="none" xmlns="http://www.w3.org/2000/svg">
<g id="Group">
<path id="Vector" d="M24.9995 -0.000244141C11.1995 -0.000244141 -0.000488281 11.1998 -0.000488281 24.9998C-0.000488281 38.7997 11.1995 49.9997 24.9995 49.9997C38.7995 49.9997 49.9995 38.7997 49.9995 24.9998C49.9995 11.1998 38.7995 -0.000244141 24.9995 -0.000244141ZM24.9995 39.2747C23.0245 39.2747 21.4245 37.6748 21.4245 35.6997C21.4245 33.7248 23.0245 32.1248 24.9995 32.1248C26.9745 32.1248 28.5745 33.7248 28.5745 35.6997C28.5745 37.6748 26.9745 39.2747 24.9995 39.2747ZM28.5745 24.9998C28.5745 26.9748 26.9745 28.5748 24.9995 28.5748C23.0245 28.5748 21.4245 26.9748 21.4245 24.9998V14.2748C21.4245 12.2998 23.0245 10.6998 24.9995 10.6998C26.9745 10.6998 28.5745 12.2998 28.5745 14.2748V24.9998Z" fill="#FFA700"/>
</g>
</svg>
