<svg width="50" height="50" viewBox="0 0 50 50" fill="none" xmlns="http://www.w3.org/2000/svg">
<g clip-path="url(#clip0_6646_25330)">
<path fill-rule="evenodd" clip-rule="evenodd" d="M25 50C38.8071 50 50 38.8071 50 25C50 11.1929 38.8071 0 25 0C11.1929 0 0 11.1929 0 25C0 38.8071 11.1929 50 25 50ZM34.3112 30.9858C35.2295 31.904 35.2295 33.3929 34.3112 34.3112C33.3929 35.2295 31.904 35.2295 30.9857 34.3112L25.0001 28.3256L19.0144 34.3113C18.0961 35.2296 16.6073 35.2296 15.689 34.3113C14.7707 33.393 14.7707 31.9042 15.689 30.9859L21.6747 25.0001L15.6887 19.0142C14.7704 18.0959 14.7704 16.607 15.6887 15.6887C16.607 14.7704 18.0959 14.7704 19.0142 15.6887L25.0001 21.6747L30.986 15.6888C31.9043 14.7705 33.3931 14.7705 34.3114 15.6888C35.2297 16.6071 35.2297 18.096 34.3114 19.0143L28.3256 25.0001L34.3112 30.9858Z" fill="#EB5757"/>
</g>
<defs>
<clipPath id="clip0_6646_25330">
<rect width="50" height="50" fill="white"/>
</clipPath>
</defs>
</svg>
