<svg width="50" height="50" viewBox="0 0 50 50" fill="none" xmlns="http://www.w3.org/2000/svg">
    <g id="Group">
        <path id="Vector"
              d="M25 0C11.2 0 0 11.2 0 25C0 38.8 11.2 50 25 50C38.8 50 50 38.8 50 25C50 11.2 38.8 0 25 0ZM35.975 20.45L22.725 32.95C22.3 33.35 21.7 33.6 21.125 33.6C21.1 33.6 21.05 33.6 21.025 33.6C20.4 33.6 19.8 33.3 19.375 32.825L13.875 26.7C13 25.725 13.1 24.25 14.05 23.4C15 22.55 16.5 22.625 17.35 23.575L21.25 27.9L32.75 17.05C33.7 16.15 35.175 16.2 36.075 17.15C36.975 18.1 36.925 19.575 35.975 20.475V20.45Z"
              fill="#21B531"/>
    </g>
</svg>
