<svg width="80" height="80" viewBox="0 0 80 80" fill="none" xmlns="http://www.w3.org/2000/svg">
<mask id="mask0_14971_51742" style="mask-type:luminance" maskUnits="userSpaceOnUse" x="0" y="0" width="80" height="80">
<path d="M80 0H0V80H80V0Z" fill="white"/>
</mask>
<g mask="url(#mask0_14971_51742)">
<path d="M40 80C62.0914 80 80 62.0914 80 40C80 17.9086 62.0914 0 40 0C17.9086 0 0 17.9086 0 40C0 62.0914 17.9086 80 40 80Z" fill="#E5F4FB"/>
<mask id="mask1_14971_51742" style="mask-type:luminance" maskUnits="userSpaceOnUse" x="10" y="10" width="60" height="60">
<path d="M69.3399 10.6719H10.6699V69.3419H69.3399V10.6719Z" fill="white"/>
</mask>
<g mask="url(#mask1_14971_51742)">
<path d="M43.8397 59.9423C43.1997 60.2123 42.5197 60.4523 41.7897 60.7023L37.9297 61.9723C28.2197 65.1023 23.1097 62.4823 19.9497 52.7823L16.8197 43.1223C13.6897 33.4223 16.2797 28.2823 25.9897 25.1523L29.7597 23.9023C29.2997 25.0723 28.8997 26.4223 28.5397 27.9323L26.1397 38.1723C23.4497 49.6823 27.3897 56.0423 38.9097 58.7823L43.0197 59.7623C43.2897 59.8323 43.5797 59.8823 43.8497 59.9323L43.8397 59.9423Z" fill="#0071BC"/>
<path d="M52.6998 18.5131L48.6198 17.5631C40.4498 15.6331 35.5798 17.2231 32.7198 23.1331C31.9898 24.6231 31.3998 26.4331 30.9098 28.5131L28.5098 38.7531C26.1098 48.9731 29.2698 54.0031 39.4698 56.4231L43.5798 57.4031C44.9998 57.7431 46.3198 57.9631 47.5398 58.0631C55.1698 58.7931 59.2298 55.2231 61.2798 46.4031L63.6798 36.1831C66.0798 25.9631 62.9498 20.9031 52.6998 18.5131ZM48.0898 43.2431C47.8798 44.0731 47.1298 44.6231 46.3098 44.6231C46.1598 44.6231 46.0098 44.6031 45.8598 44.5631L38.7498 42.7531C37.7698 42.5031 37.1698 41.5031 37.4198 40.5231C37.6698 39.5431 38.6598 38.9531 39.6498 39.2031L46.7598 41.0131C47.7398 41.2631 48.3398 42.2631 48.0898 43.2431ZM55.2498 34.9731C55.0398 35.8031 54.2898 36.3531 53.4698 36.3531C53.3198 36.3531 53.1698 36.3331 53.0198 36.2931L41.1698 33.2731C40.1898 33.0231 39.5898 32.0231 39.8498 31.0431C40.0998 30.0631 41.0998 29.4731 42.0798 29.7231L53.9298 32.7431C54.9098 32.9931 55.5098 33.9931 55.2498 34.9731Z" fill="#0071BC"/>
</g>
</g>
</svg>
