<svg width="360" height="240" viewBox="0 0 360 240" fill="none" xmlns="http://www.w3.org/2000/svg">
<mask id="mask0_10327_23344" style="mask-type:luminance" maskUnits="userSpaceOnUse" x="0" y="0" width="280" height="240">
<path d="M280 0H0V240H280V0Z" fill="white"/>
</mask>
<g mask="url(#mask0_10327_23344)">
<path d="M236.12 72.3298L183.32 284.09C182.28 288.27 178.05 290.81 173.88 289.77L37.75 255.83C33.57 254.79 31.03 250.56 32.07 246.38L84.86 34.6298C85.9 30.4598 90.13 27.9198 94.31 28.9498L230.44 62.8898C234.61 63.9398 237.15 68.1598 236.11 72.3298H236.12Z" fill="#346FDD"/>
<path d="M126.13 111.37L93.34 110.92C90.12 110.8 87.6 108.09 87.72 104.86C87.74 104.46 87.79 104.05 87.89 103.66L89.1 98.8096L89.15 98.8296C89.03 100.71 90.27 102.42 92.1 102.88L126.13 111.36V111.37Z" fill="#345085"/>
<path d="M139.34 74.4993L130.85 108.529C130.33 110.619 128.21 111.889 126.12 111.369L123.84 110.799L93.7 103.289L92.1 102.889C90.02 102.379 88.74 100.279 89.25 98.1893V98.1593L97.74 64.1293C98.26 62.0393 100.38 60.7693 102.47 61.2893L136.5 69.7693C138.59 70.2893 139.86 72.4093 139.34 74.4993Z" fill="#C4D7FC"/>
<path d="M205.75 100.82L158.68 89.0797C156.61 88.4697 155.43 86.3097 156.03 84.2397C156.6 82.2897 158.57 81.0997 160.56 81.5197L207.63 93.2597C209.7 93.8597 210.89 96.0197 210.29 98.0897C209.72 100.05 207.74 101.24 205.75 100.82Z" fill="#75A3F9"/>
<path d="M200.09 123.539L153.02 111.799C150.95 111.199 149.76 109.039 150.36 106.969C150.93 105.009 152.91 103.819 154.9 104.239L201.97 115.979C204.04 116.589 205.22 118.749 204.61 120.819C204.04 122.769 202.07 123.949 200.08 123.539H200.09Z" fill="#75A3F9"/>
<path d="M191.18 159.25L85.61 132.93C83.5 132.49 82.15 130.43 82.59 128.32C83.03 126.21 85.09 124.86 87.2 125.3C87.3 125.32 87.4 125.35 87.5 125.37L193.07 151.7C195.14 152.3 196.33 154.46 195.73 156.53C195.16 158.49 193.18 159.68 191.19 159.26L191.18 159.25Z" fill="#75A3F9"/>
<path d="M185.17 183.39L79.6 157.07C77.49 156.63 76.14 154.57 76.58 152.46C77.02 150.35 79.08 149 81.19 149.44C81.29 149.46 81.39 149.49 81.49 149.51L187.06 175.83C189.13 176.43 190.32 178.59 189.72 180.66C189.15 182.62 187.17 183.81 185.17 183.39Z" fill="#75A3F9"/>
<path d="M179.15 207.52L73.57 181.199C71.46 180.789 70.07 178.74 70.49 176.63C70.9 174.52 72.95 173.13 75.06 173.55C75.09 173.55 75.13 173.56 75.16 173.57C75.26 173.59 75.36 173.619 75.46 173.639L181.03 199.96C183.1 200.56 184.29 202.719 183.69 204.789C183.12 206.749 181.14 207.94 179.14 207.52H179.15Z" fill="#75A3F9"/>
<path d="M119.25 218.22L67.56 205.33C65.45 204.91 64.07 202.86 64.49 200.75C64.91 198.64 66.96 197.26 69.07 197.68C69.1 197.68 69.12 197.69 69.15 197.7C69.25 197.72 69.35 197.75 69.45 197.77L121.14 210.66C123.25 211.08 124.63 213.13 124.21 215.24C123.79 217.35 121.74 218.73 119.63 218.31C119.6 218.31 119.58 218.3 119.55 218.29C119.45 218.27 119.35 218.24 119.25 218.22Z" fill="#75A3F9"/>
<path d="M114.96 89.7898C118.892 89.7898 122.08 86.6021 122.08 82.6698C122.08 78.7375 118.892 75.5498 114.96 75.5498C111.028 75.5498 107.84 78.7375 107.84 82.6698C107.84 86.6021 111.028 89.7898 114.96 89.7898Z" fill="#3A7BF6"/>
<path d="M123.84 110.799L93.7 103.289C96.81 95.2195 105.86 91.2095 113.93 94.3095C120.62 96.8895 124.7 103.679 123.84 110.799Z" fill="#3A7BF6"/>
<path d="M54 63.6001L48.73 64.1901C48.55 64.2101 48.4 64.3201 48.32 64.4801L45.96 69.2301C45.83 69.4901 45.52 69.5901 45.27 69.4701C45.11 69.3901 45 69.2401 44.98 69.0601L44.39 63.7901C44.37 63.6101 44.26 63.4601 44.1 63.3801L39.35 61.0201C39.09 60.8901 38.99 60.5801 39.11 60.3201C39.19 60.1601 39.34 60.0501 39.52 60.0301L44.79 59.4401C44.97 59.4201 45.12 59.3101 45.2 59.1501L47.56 54.4001C47.69 54.1401 48 54.0401 48.26 54.1701C48.42 54.2501 48.52 54.4001 48.54 54.5701L49.13 59.8401C49.15 60.0201 49.26 60.1701 49.42 60.2501L54.17 62.6101C54.43 62.7401 54.53 63.0501 54.4 63.3101C54.32 63.4701 54.17 63.5701 53.99 63.5901L54 63.6001Z" fill="#C6DCF7"/>
<path d="M227.14 221.169L223.79 219.029C223.68 218.959 223.54 218.949 223.42 219.009L219.8 220.659C219.6 220.749 219.37 220.659 219.28 220.469C219.23 220.349 219.23 220.209 219.3 220.099L221.44 216.749C221.51 216.639 221.52 216.499 221.46 216.379L219.8 212.759C219.71 212.559 219.8 212.329 219.99 212.239C220.11 212.189 220.25 212.189 220.36 212.269L223.71 214.409C223.82 214.479 223.96 214.489 224.08 214.429L227.7 212.779C227.9 212.689 228.13 212.779 228.22 212.969C228.27 213.089 228.26 213.229 228.19 213.339L226.05 216.689C225.98 216.799 225.97 216.939 226.03 217.059L227.69 220.679C227.78 220.879 227.69 221.109 227.5 221.199C227.38 221.259 227.24 221.249 227.13 221.169H227.14Z" fill="#345085"/>
<path d="M278.88 97.58L269.04 96.1C268.71 96.05 268.39 96.17 268.17 96.42L261.59 103.88C261.24 104.29 260.62 104.33 260.22 103.98C259.96 103.76 259.84 103.42 259.89 103.09L261.37 93.25C261.42 92.92 261.3 92.59 261.05 92.38L253.59 85.8C253.18 85.45 253.14 84.83 253.49 84.43C253.71 84.17 254.05 84.05 254.38 84.1L264.22 85.58C264.55 85.63 264.87 85.51 265.09 85.26L271.67 77.8C272.03 77.4 272.64 77.36 273.04 77.71C273.29 77.93 273.41 78.26 273.36 78.59L271.88 88.43C271.83 88.76 271.95 89.08 272.2 89.3L279.66 95.88C280.07 96.23 280.11 96.85 279.76 97.26C279.54 97.51 279.21 97.64 278.88 97.58Z" fill="#C6DCF7"/>
<path d="M169.77 18.1698L165.83 12.8298C165.7 12.6498 165.49 12.5498 165.27 12.5698L158.65 12.9798C158.29 12.9998 157.98 12.7298 157.96 12.3698C157.95 12.1498 158.04 11.9398 158.22 11.8098L163.56 7.86977C163.74 7.73977 163.84 7.52977 163.82 7.30977L163.41 0.689775C163.39 0.329775 163.66 0.0197747 164.02 -0.000225308C164.24 -0.0102253 164.45 0.0797747 164.58 0.259775L168.52 5.59977C168.65 5.77977 168.86 5.87977 169.08 5.85977L175.7 5.44977C176.06 5.42977 176.37 5.69977 176.39 6.05977C176.4 6.27977 176.31 6.48977 176.13 6.61977L170.79 10.5598C170.61 10.6898 170.52 10.8998 170.53 11.1198L170.94 17.7398C170.96 18.0998 170.69 18.4098 170.33 18.4298C170.11 18.4398 169.9 18.3398 169.76 18.1698H169.77Z" fill="#4267AB"/>
<path d="M248.31 155.29L246.97 160.65C242.88 177.05 228.37 188.71 211.47 189.17C196.77 180.83 189.42 163.72 193.51 147.32L194.85 141.96C195.19 140.59 196.42 139.63 197.83 139.64C203.08 139.48 207.87 136.6 210.47 132.04C211.12 130.79 212.55 130.15 213.92 130.49L236.84 136.2C238.21 136.54 239.17 137.77 239.16 139.18C239.32 144.43 242.2 149.22 246.76 151.82C248.01 152.47 248.65 153.9 248.3 155.27L248.31 155.29Z" fill="#C4D7FC"/>
<path d="M212.08 169.95C211.29 169.75 210.61 169.25 210.19 168.55L204.94 159.82C204.08 158.36 204.57 156.48 206.03 155.62C207.47 154.77 209.33 155.23 210.21 156.66L213.88 162.76L229.82 153.18C231.27 152.31 233.16 152.78 234.03 154.23C234.9 155.68 234.43 157.57 232.98 158.44L214.41 169.6C213.71 170.02 212.88 170.15 212.09 169.95H212.08Z" fill="#3A7BF6"/>
<path d="M196.35 140.01C196.64 139.85 196.96 139.74 197.29 139.68C196.98 139.8 196.66 139.91 196.35 140.01Z" fill="#C6DCF7"/>
<path d="M214.42 188.98C211.72 189.67 208.96 190.06 206.18 190.13C191.48 181.79 184.13 164.68 188.22 148.28L189.56 142.92C189.9 141.55 191.13 140.59 192.54 140.6C193.83 140.6 195.12 140.4 196.36 140.02C195.61 140.43 195.06 141.14 194.85 141.97L193.51 147.33C189.42 163.73 196.76 180.85 211.47 189.18C212.47 189.15 213.45 189.09 214.42 188.98Z" fill="#345085"/>
<path d="M47.78 112.499L36.85 153.279C36.25 155.529 33.93 156.869 31.68 156.259L3.14 148.609C0.89 148.009 -0.45 145.689 0.15 143.439L8.35 112.839L26.44 102.399L44.8 107.319C47.05 107.919 48.39 110.239 47.78 112.489V112.499Z" fill="#345085"/>
<path d="M51.37 110.419L40.44 151.199C39.84 153.449 37.52 154.789 35.27 154.189L6.72 146.539C4.47 145.939 3.13 143.629 3.73 141.369L11.93 110.769L30.01 100.329L48.37 105.249C50.62 105.849 51.96 108.169 51.36 110.419H51.37Z" fill="#C4D7FC"/>
<path d="M30.02 100.329L26.75 112.549C26.45 113.679 25.29 114.339 24.16 114.039L11.94 110.759L30.02 100.319V100.329Z" fill="#4267AB"/>
<path d="M36.86 130.809C36.73 130.809 36.61 130.789 36.48 130.759L17.87 125.939C17.08 125.689 16.64 124.849 16.89 124.059C17.12 123.329 17.87 122.889 18.62 123.039L37.23 127.859C38.03 128.069 38.51 128.889 38.31 129.689C38.14 130.349 37.54 130.809 36.86 130.809Z" fill="#4267AB"/>
<path d="M34.48 139.269C34.35 139.269 34.23 139.249 34.1 139.219L15.49 134.399C14.7 134.149 14.26 133.309 14.51 132.519C14.74 131.789 15.49 131.349 16.24 131.499L34.85 136.319C35.65 136.529 36.13 137.349 35.93 138.149C35.76 138.809 35.16 139.269 34.48 139.269Z" fill="#4267AB"/>
</g>
</svg>
