<svg width="64" height="24" viewBox="0 0 64 24" fill="none" xmlns="http://www.w3.org/2000/svg">
<g clip-path="url(#clip0_11694_40563)">
<path d="M14.92 0H14.73V0.206538V16.3165V16.523H14.92H23.82H24.02V16.3165V14.1168V13.9103H23.82H17.38V9.3355H22.03H22.23V9.13929V6.92934V6.7228H22.03H17.38V2.6127H23.82H24.02V2.40616V0.206538V0H23.82H14.92Z" fill="#12161C"/>
<path d="M30.33 13.9103V0.206538V0H30.13H27.87H27.68V0.206538V16.3165V16.523H27.87H35.64H35.84V16.3165V14.1168V13.9103H35.64H30.33Z" fill="#12161C"/>
<path d="M41.88 13.9103V0.206538V0H41.69H39.42H39.23V0.206538V16.3165V16.523H39.42H47.19H47.39V16.3165V14.1168V13.9103H47.19H41.88Z" fill="#12161C"/>
<path d="M63.15 3.96552C62.61 2.75727 61.75 1.74524 60.66 1.04301C59.44 0.36144 58.09 0 56.72 0C55.35 0 54 0.36144 52.8 1.04301C51.7 1.75557 50.84 2.75727 50.3 3.96552C49.71 5.30801 49.42 6.79508 49.45 8.27182C49.42 9.73824 49.72 11.2253 50.3 12.5678C50.84 13.776 51.7 14.7881 52.79 15.4903C54 16.1719 55.35 16.5333 56.72 16.5333C58.09 16.5333 59.44 16.1719 60.64 15.4903C61.74 14.7881 62.61 13.776 63.14 12.5678C63.73 11.2253 64.02 9.73824 63.99 8.2615C64.02 6.79508 63.72 5.30801 63.14 3.96552H63.15ZM56.87 2.54041C57.72 2.54041 58.55 2.78826 59.27 3.26329C59.95 3.74865 60.48 4.43023 60.78 5.23572C61.15 6.20645 61.32 7.21848 61.3 8.2615C61.32 9.31484 61.15 10.3372 60.78 11.3079C60.48 12.1134 59.95 12.8053 59.26 13.301C58.58 13.7554 57.78 13.9929 56.96 13.9929C56.89 13.9929 56.81 13.9929 56.74 13.9929C56.7 13.9929 56.65 13.9929 56.61 13.9929C55.75 13.9929 54.92 13.7451 54.19 13.27C53.5 12.7847 52.98 12.1031 52.67 11.2976C52.31 10.3269 52.14 9.31484 52.16 8.27182C52.15 7.21848 52.32 6.19612 52.69 5.2254C52.99 4.4199 53.52 3.728 54.21 3.23231C54.9 2.77793 55.69 2.54041 56.51 2.54041C56.58 2.54041 56.66 2.54041 56.73 2.54041C56.78 2.54041 56.82 2.54041 56.87 2.54041Z" fill="#12161C"/>
<path d="M3.3 0H3.11V0.206538V7.05326H0.2H0V7.24947V9.45942V9.65563H0.2H3.11V16.3165V16.523H3.3H5.56H5.76V16.3165V9.65563H8.48H8.67V9.45942V7.24947V7.05326H8.48H5.76V2.73662H8.02H8.08L8.13 2.70564L11.28 0.361441L11.78 0H11.17H3.3Z" fill="#12161C"/>
<path d="M3.22992 22.3608L1.69992 19.3008H0.919922V23.9008H1.72992V21.1508L3.06992 23.9008H3.37992L4.71992 21.1508V23.9008H5.52992V19.3008H4.74992L3.22992 22.3608Z" fill="#12161C"/>
<path d="M10.27 23.9008H13.27V23.0908H11.14V21.9108H12.89V21.0908H11.14V20.1108H13.27V19.3008H10.27V23.9008Z" fill="#12161C"/>
<path d="M21.1099 21.8104C21.2999 21.5404 21.3999 21.2104 21.3999 20.8204C21.3999 20.5604 21.3599 20.3304 21.2799 20.1204C21.1999 19.9104 21.0699 19.7404 20.8899 19.6004C20.7099 19.4604 20.4899 19.3704 20.2099 19.3304C20.1499 19.3204 20.0799 19.3104 20.0099 19.3104C19.9299 19.3104 19.8699 19.3104 19.8299 19.3104H17.8799V23.9204H18.7499V22.3604H19.7199L20.4799 23.9204H21.4699L20.6399 22.2104C20.8399 22.1204 20.9999 22.0004 21.1199 21.8304L21.1099 21.8104ZM18.7499 20.1104H19.7899C19.7899 20.1104 19.8799 20.1104 19.9399 20.1104C19.9899 20.1104 20.0399 20.1204 20.0899 20.1404C20.2099 20.1704 20.2999 20.2304 20.3599 20.3004C20.4199 20.3704 20.4699 20.4604 20.4899 20.5504C20.5099 20.6404 20.5299 20.7304 20.5299 20.8104C20.5299 20.8904 20.5199 20.9804 20.4899 21.0704C20.4599 21.1604 20.4199 21.2504 20.3599 21.3204C20.2999 21.3904 20.2099 21.4504 20.0899 21.4804C20.0499 21.4904 19.9999 21.5004 19.9399 21.5104C19.8899 21.5104 19.8399 21.5104 19.7899 21.5104H18.7499V20.0904V20.1104Z" fill="#12161C"/>
<path d="M27.0599 20.2104C27.2599 20.0804 27.4999 20.0104 27.7899 20.0104C28.1099 20.0104 28.3699 20.0904 28.5699 20.2404C28.7699 20.3904 28.9199 20.6104 28.9999 20.8904L29.8799 20.6504C29.7299 20.2004 29.4799 19.8504 29.1199 19.5804C28.7599 19.3204 28.3199 19.1904 27.7899 19.1904C27.3299 19.1904 26.9299 19.2904 26.5999 19.4904C26.2699 19.6904 26.0099 19.9704 25.8299 20.3304C25.6499 20.6904 25.5599 21.1104 25.5599 21.5904C25.5599 22.0704 25.6499 22.4904 25.8299 22.8504C26.0099 23.2104 26.2699 23.4904 26.5999 23.6904C26.9299 23.8904 27.3299 23.9904 27.7899 23.9904C28.3199 23.9904 28.7599 23.8604 29.1199 23.6004C29.4799 23.3404 29.7299 22.9804 29.8799 22.5304L28.9999 22.2904C28.9099 22.5704 28.7699 22.7804 28.5699 22.9404C28.3699 23.1004 28.1099 23.1704 27.7899 23.1704C27.4999 23.1704 27.2499 23.1004 27.0599 22.9704C26.8599 22.8404 26.7199 22.6604 26.6199 22.4204C26.5199 22.1804 26.4699 21.9004 26.4699 21.5804C26.4699 21.2604 26.5199 20.9804 26.6199 20.7404C26.7199 20.5004 26.8599 20.3204 27.0599 20.1904V20.2104Z" fill="#12161C"/>
<path d="M37.3602 21.1908H35.3002V19.3008H34.4302V23.9008H35.3002V22.0008H37.3602V23.9008H38.2302V19.3008H37.3602V21.1908Z" fill="#12161C"/>
<path d="M44.0599 19.3008L42.6499 23.9108H43.5499L43.8399 22.9508H45.5799L45.8799 23.9108H46.7799L45.3699 19.3008H44.0699H44.0599ZM44.0899 22.1408L44.6999 20.1208L45.3199 22.1408H44.0799H44.0899Z" fill="#12161C"/>
<path d="M54.0697 22.3708L52.0597 19.3008H51.1797V23.9008H52.0597V20.8308L54.0697 23.9008H54.9497V19.3008H54.0697V22.3708Z" fill="#12161C"/>
<path d="M59.2998 19.3008V20.1108H60.7598V23.9008H61.6298V20.1108H63.0798V19.3008H59.2998Z" fill="#12161C"/>
</g>
<defs>
<clipPath id="clip0_11694_40563">
<rect width="64" height="24" fill="white"/>
</clipPath>
</defs>
</svg>
