<svg width="128" height="48" viewBox="0 0 128 48" fill="none" xmlns="http://www.w3.org/2000/svg">
<g clip-path="url(#clip0_10327_23135)">
<path d="M29.84 0H29.46V0.413075V32.633V33.046H29.84H47.64H48.04V32.633V28.2337V27.8206H47.64H34.76V18.671H44.06H44.46V18.2786V13.8587V13.4456H44.06H34.76V5.2254H47.64H48.04V4.81233V0.413075V0H47.64H29.84Z" fill="white"/>
<path d="M60.66 27.8206V0.413075V0H60.26H55.74H55.36V0.413075V32.633V33.046H55.74H71.28H71.68V32.633V28.2337V27.8206H71.28H60.66Z" fill="white"/>
<path d="M83.76 27.8206V0.413075V0H83.38H78.84H78.46V0.413075V32.633V33.046H78.84H94.38H94.78V32.633V28.2337V27.8206H94.38H83.76Z" fill="white"/>
<path d="M126.3 7.93104C125.22 5.51455 123.5 3.49048 121.32 2.08603C118.88 0.722881 116.18 0 113.44 0C110.7 0 108 0.722881 105.6 2.08603C103.4 3.51114 101.68 5.51455 100.6 7.93104C99.42 10.616 98.84 13.5902 98.9 16.5436C98.84 19.4765 99.44 22.4506 100.6 25.1356C101.68 27.5521 103.4 29.5762 105.58 30.9806C108 32.3438 110.7 33.0666 113.44 33.0666C116.18 33.0666 118.88 32.3438 121.28 30.9806C123.48 29.5762 125.22 27.5521 126.28 25.1356C127.46 22.4506 128.04 19.4765 127.98 16.523C128.04 13.5902 127.44 10.616 126.28 7.93104H126.3ZM113.74 5.08082C115.44 5.08082 117.1 5.57651 118.54 6.52658C119.9 7.49731 120.96 8.86046 121.56 10.4714C122.3 12.4129 122.64 14.437 122.6 16.523C122.64 18.6297 122.3 20.6744 121.56 22.6158C120.96 24.2268 119.9 25.6106 118.52 26.602C117.16 27.5108 115.56 27.9858 113.92 27.9858C113.78 27.9858 113.62 27.9858 113.48 27.9858C113.4 27.9858 113.3 27.9858 113.22 27.9858C111.5 27.9858 109.84 27.4901 108.38 26.5401C107 25.5693 105.96 24.2062 105.34 22.5952C104.62 20.6537 104.28 18.6297 104.32 16.5436C104.3 14.437 104.64 12.3922 105.38 10.4508C105.98 8.8398 107.04 7.456 108.42 6.46462C109.8 5.55586 111.38 5.08082 113.02 5.08082C113.16 5.08082 113.32 5.08082 113.46 5.08082C113.56 5.08082 113.64 5.08082 113.74 5.08082Z" fill="white"/>
<path d="M6.6 0H6.22V0.413075V14.1065H0.4H0V14.4989V18.9188V19.3113H0.4H6.22V32.633V33.046H6.6H11.12H11.52V32.633V19.3113H16.96H17.34V18.9188V14.4989V14.1065H16.96H11.52V5.47325H16.04H16.16L16.26 5.41129L22.56 0.722882L23.56 0H22.34H6.6Z" fill="white"/>
<path d="M6.46 44.72L3.4 38.6H1.84V47.8H3.46V42.3L6.14 47.8H6.76L9.44 42.3V47.8H11.06V38.6H9.5L6.46 44.72Z" fill="white"/>
<path d="M20.54 47.8H26.54V46.18H22.28V43.82H25.78V42.18H22.28V40.22H26.54V38.6H20.54V47.8Z" fill="white"/>
<path d="M42.22 43.62C42.6 43.08 42.8 42.42 42.8 41.64C42.8 41.12 42.72 40.66 42.56 40.24C42.4 39.82 42.14 39.48 41.78 39.2C41.42 38.92 40.98 38.74 40.42 38.66C40.3 38.64 40.16 38.62 40.02 38.62C39.86 38.62 39.74 38.62 39.66 38.62H35.76V47.84H37.5V44.72H39.44L40.96 47.84H42.94L41.28 44.42C41.68 44.24 42 44 42.24 43.66L42.22 43.62ZM37.5 40.22H39.58C39.58 40.22 39.76 40.22 39.88 40.22C39.98 40.22 40.08 40.24 40.18 40.28C40.42 40.34 40.6 40.46 40.72 40.6C40.84 40.74 40.94 40.92 40.98 41.1C41.02 41.28 41.06 41.46 41.06 41.62C41.06 41.78 41.04 41.96 40.98 42.14C40.92 42.32 40.84 42.5 40.72 42.64C40.6 42.78 40.42 42.9 40.18 42.96C40.1 42.98 40 43 39.88 43.02C39.78 43.02 39.68 43.02 39.58 43.02H37.5V40.18V40.22Z" fill="white"/>
<path d="M54.12 40.42C54.52 40.16 55 40.02 55.58 40.02C56.22 40.02 56.74 40.18 57.14 40.48C57.54 40.78 57.84 41.22 58 41.78L59.76 41.3C59.46 40.4 58.96 39.7 58.24 39.16C57.52 38.64 56.64 38.38 55.58 38.38C54.66 38.38 53.86 38.58 53.2 38.98C52.54 39.38 52.02 39.94 51.66 40.66C51.3 41.38 51.12 42.22 51.12 43.18C51.12 44.14 51.3 44.98 51.66 45.7C52.02 46.42 52.54 46.98 53.2 47.38C53.86 47.78 54.66 47.98 55.58 47.98C56.64 47.98 57.52 47.72 58.24 47.2C58.96 46.68 59.46 45.96 59.76 45.06L58 44.58C57.82 45.14 57.54 45.56 57.14 45.88C56.74 46.2 56.22 46.34 55.58 46.34C55 46.34 54.5 46.2 54.12 45.94C53.72 45.68 53.44 45.32 53.24 44.84C53.04 44.36 52.94 43.8 52.94 43.16C52.94 42.52 53.04 41.96 53.24 41.48C53.44 41 53.72 40.64 54.12 40.38V40.42Z" fill="white"/>
<path d="M74.72 42.38H70.6V38.6H68.86V47.8H70.6V44H74.72V47.8H76.46V38.6H74.72V42.38Z" fill="white"/>
<path d="M88.12 38.6L85.3 47.82H87.1L87.68 45.9H91.16L91.76 47.82H93.56L90.74 38.6H88.14H88.12ZM88.18 44.28L89.4 40.24L90.64 44.28H88.16H88.18Z" fill="white"/>
<path d="M108.14 44.74L104.12 38.6H102.36V47.8H104.12V41.66L108.14 47.8H109.9V38.6H108.14V44.74Z" fill="white"/>
<path d="M118.6 38.6V40.22H121.52V47.8H123.26V40.22H126.16V38.6H118.6Z" fill="white"/>
</g>
<defs>
<clipPath id="clip0_10327_23135">
<rect width="128" height="48" fill="white"/>
</clipPath>
</defs>
</svg>
