<svg width="40" height="40" viewBox="0 0 40 40" fill="none" xmlns="http://www.w3.org/2000/svg">
<g clip-path="url(#clip0_10900_30875)">
<path d="M40 0H0V40H40V0Z" fill="white"/>
<mask id="mask0_10900_30875" style="mask-type:luminance" maskUnits="userSpaceOnUse" x="0" y="0" width="40" height="40">
<path d="M0.5 0.5H39.5V39.5H0.5V0.5Z" fill="white" stroke="white"/>
</mask>
<g mask="url(#mask0_10900_30875)">
<path d="M28.5938 31.6201V24.8419C28.5938 24.0724 28.1688 23.3638 27.4852 22.9912L14.7539 16.0623C14.4664 15.906 14.2937 15.6013 14.3109 15.2755C14.3281 14.9544 14.5344 14.6662 14.8352 14.5435L25.1172 10.2677C25.5516 10.0857 26.0578 10.2888 26.243 10.7201C26.4281 11.1474 26.2219 11.6466 25.7828 11.8279L17.6273 15.2201L17.1328 15.4232L18.6625 16.2521L20.1625 17.0685L24.2445 15.3685C24.382 15.3091 24.532 15.2927 24.6695 15.3091C24.6906 15.313 24.7164 15.3177 24.7383 15.3216H24.743C24.7773 15.3255 24.8078 15.3341 24.8375 15.3466C24.8805 15.3591 24.9187 15.3716 24.9578 15.3888C24.9664 15.3927 24.9711 15.3974 24.975 15.4013C25.0141 15.4185 25.0438 15.4396 25.0781 15.4646C25.1125 15.4896 25.1508 15.5154 25.1813 15.549C25.2156 15.5787 25.2453 15.6123 25.2711 15.6505C25.2969 15.6841 25.3187 15.7185 25.3359 15.756C25.3445 15.7646 25.3484 15.7685 25.3484 15.7771C25.357 15.7896 25.3656 15.8029 25.3703 15.8193C25.3789 15.8404 25.3875 15.8576 25.3914 15.8787C25.4086 15.9209 25.4219 15.9677 25.4258 16.0138C25.4344 16.0521 25.4383 16.0943 25.4344 16.1326C25.4477 16.4412 25.2758 16.7373 24.9875 16.8896C24.9664 16.9021 24.9406 16.9146 24.9148 16.9279L22.0789 18.1076L26.6812 20.606C27.5406 21.0724 28.593 20.4607 28.593 19.4951V8.37944C28.593 7.47319 27.6563 6.85913 26.807 7.20913L12.1977 13.2201C11.718 13.4177 11.4055 13.8787 11.4055 14.3904V23.9302C11.4055 24.3982 11.6672 24.8287 12.0867 25.049L26.6961 32.7388C27.5547 33.1912 28.593 32.5787 28.593 31.6201H28.5938Z" fill="#3A7BF6"/>
</g>
</g>
<rect x="0.5" y="0.5" width="39" height="39" rx="7.5" stroke="#EBEBF2"/>
<defs>
<clipPath id="clip0_10900_30875">
<rect width="40" height="40" rx="8" fill="white"/>
</clipPath>
</defs>
</svg>
